<?xml version="1.0" standalone="no"?>
<!DOCTYPE svg PUBLIC "-//W3C//DTD SVG 20010904//EN"
 "http://www.w3.org/TR/2001/REC-SVG-20010904/DTD/svg10.dtd">
<svg version="1.0" xmlns="http://www.w3.org/2000/svg"
 width="900.000000pt" height="900.000000pt" viewBox="0 0 900.000000 900.000000"
 preserveAspectRatio="xMidYMid meet">

<g transform="translate(0.000000,900.000000) scale(0.100000,-0.100000)"
fill="#000000" stroke="none">
<path d="M0 4500 l0 -4500 4500 0 4500 0 0 4500 0 4500 -4500 0 -4500 0 0
-4500z m5805 3431 c221 -41 381 -93 545 -177 448 -228 734 -628 805 -1125 44
-312 23 -658 -56 -907 -172 -540 -611 -912 -1223 -1036 -181 -37 -336 -46
-782 -46 l-404 0 0 -1014 0 -1014 -247 -6 c-137 -3 -283 -9 -325 -12 l-78 -5
0 131 0 132 -612 -6 c-337 -4 -646 -9 -686 -12 l-72 -6 -126 -137 -125 -138
-401 -7 c-220 -4 -402 -5 -406 -2 -5 6 73 98 174 206 169 181 372 400 454 490
52 58 154 168 225 245 72 77 175 190 231 250 228 248 625 679 904 980 163 176
329 356 368 400 l72 80 0 1383 0 1383 823 -3 c804 -4 825 -4 942 -27z m1173
-5778 c2 -17 -3 -24 -20 -27 -13 -3 -428 -8 -923 -11 -495 -3 -1435 -10 -2090
-15 -655 -5 -1401 -10 -1660 -11 l-470 -1 -3 24 -3 25 478 7 c263 3 1167 11
2008 17 842 5 1643 11 1780 12 138 2 396 2 575 2 l325 0 3 -22z m-4674 -284
c22 -7 54 -28 73 -45 59 -56 36 -126 -52 -160 l-45 -17 92 -88 93 -88 -55 -1
-55 0 -85 85 -85 85 -52 0 -53 0 0 -85 0 -85 -45 0 -45 0 0 211 0 212 138 -6
c75 -3 155 -11 176 -18z m636 9 c-1 -36 -16 -39 -166 -41 l-149 -2 0 -65 0
-65 143 -3 c134 -2 142 -4 142 -22 0 -19 -7 -20 -145 -20 l-145 0 0 -70 0 -70
170 0 170 0 0 -25 0 -25 -215 0 -215 0 0 203 c0 112 3 207 7 210 3 4 96 7 205
7 152 0 198 -3 198 -12z m545 -14 c75 -24 150 -92 157 -144 13 -85 -33 -158
-126 -201 -78 -36 -160 -49 -318 -49 l-128 0 0 203 c0 112 3 207 8 211 4 5 84
6 177 4 132 -3 183 -9 230 -24z m593 -69 c118 -192 192 -316 192 -320 0 -3
-21 -5 -47 -5 l-48 0 -35 63 -36 62 -134 2 -135 3 -40 -65 c-39 -64 -41 -65
-82 -65 -24 0 -43 3 -43 6 0 4 29 52 64 108 34 55 91 147 126 204 l62 103 51
-3 50 -3 55 -90z m748 82 c5 -4 4 -15 -2 -24 -8 -13 -33 -16 -139 -17 -113 -1
-135 -4 -171 -23 -53 -28 -90 -72 -98 -118 -26 -138 133 -216 348 -170 74 16
86 14 86 -15 0 -27 -109 -44 -251 -38 -98 4 -122 8 -172 32 -82 39 -112 82
-112 161 0 52 4 67 28 99 37 47 91 83 164 107 47 15 82 18 185 16 69 -1 130
-6 134 -10z m542 -14 c3 -22 1 -23 -82 -24 -47 -1 -92 -2 -98 -3 -10 -1 -14
-46 -16 -183 l-2 -183 -45 0 -45 0 0 185 0 185 -100 0 -100 0 0 25 0 25 243
-2 242 -3 3 -22z m482 15 c-1 -36 -16 -40 -166 -42 l-149 -1 0 -65 0 -65 143
-3 c133 -2 142 -4 142 -22 0 -18 -9 -20 -142 -22 l-143 -3 -3 -67 -3 -68 171
0 170 0 0 -25 0 -25 -215 0 -215 0 0 203 c0 112 3 207 7 210 3 4 96 7 205 7
152 0 198 -3 198 -12z m545 -13 c99 -35 155 -97 155 -173 0 -61 -32 -118 -88
-153 -78 -50 -131 -61 -314 -66 l-168 -6 0 213 0 212 183 -5 c138 -3 194 -9
232 -22z m585 -650 c7 -8 10 -21 7 -29 -6 -16 -245 -20 -3792 -56 -545 -5
-1079 -11 -1187 -13 l-198 -3 0 26 0 27 342 7 c189 3 1000 13 1803 22 803 8
1723 19 2045 23 980 13 966 13 980 -4z"/>
<path d="M4690 6299 l0 -1061 483 5 c477 4 483 4 588 29 103 26 253 82 307
115 158 99 292 267 347 438 106 327 88 785 -41 1050 -126 259 -367 419 -707
469 -82 13 -198 16 -541 16 l-436 0 0 -1061z"/>
<path d="M3849 4107 c-102 -106 -241 -253 -309 -327 -68 -74 -167 -182 -219
-239 l-96 -104 70 6 c39 3 218 14 398 24 180 9 332 20 337 23 7 4 9 153 8 408
l-3 401 -186 -192z"/>
<path d="M2080 1766 l0 -78 94 4 c109 4 139 20 134 72 -5 46 -40 65 -140 72
l-88 7 0 -77z"/>
<path d="M3168 1835 c-5 -5 -8 -77 -8 -162 l0 -153 93 0 c148 0 244 37 273
106 32 77 6 147 -68 183 -34 16 -71 22 -164 27 -65 4 -122 3 -126 -1z"/>
<path d="M3917 1738 l-47 -83 50 -3 c27 -2 72 -2 99 0 l50 3 -46 75 c-25 41
-48 78 -52 83 -4 4 -29 -30 -54 -75z"/>
<path d="M6070 1682 l0 -162 93 0 c148 0 238 34 271 104 36 76 8 153 -70 187
-33 15 -76 22 -169 26 l-125 6 0 -161z"/>
</g>
</svg>
